<svg width="18" height="11" viewBox="0 0 18 11" fill="none" xmlns="http://www.w3.org/2000/svg">
<path d="M8.30034 10.6363L0.290343 2.62534C0.198305 2.53348 0.125286 2.42437 0.075465 2.30426C0.0256442 2.18414 0 2.05538 0 1.92534C0 1.79531 0.0256442 1.66655 0.075465 1.54643C0.125286 1.42632 0.198305 1.31721 0.290343 1.22534L1.22434 0.292343C1.31621 0.200305 1.42532 0.127286 1.54543 0.077465C1.66555 0.0276442 1.79431 0.002 1.92434 0.002C2.05438 0.002 2.18314 0.0276442 2.30326 0.077465C2.42337 0.127286 2.53248 0.200305 2.62434 0.292343L9.00034 6.63934L15.3793 0.290343C15.4712 0.198305 15.5803 0.125286 15.7004 0.075465C15.8205 0.0256442 15.9493 0 16.0793 0C16.2094 0 16.3381 0.0256442 16.4583 0.075465C16.5784 0.125286 16.6875 0.198305 16.7793 0.290343L17.7133 1.22434C17.8054 1.31621 17.8784 1.42532 17.9282 1.54543C17.978 1.66555 18.0037 1.79431 18.0037 1.92434C18.0037 2.05438 17.978 2.18314 17.9282 2.30326C17.8784 2.42337 17.8054 2.53248 17.7133 2.62434L9.70034 10.6363C9.60848 10.7284 9.49937 10.8014 9.37926 10.8512C9.25914 10.901 9.13038 10.9267 9.00034 10.9267C8.87031 10.9267 8.74154 10.901 8.62143 10.8512C8.50132 10.8014 8.39221 10.7284 8.30034 10.6363Z" fill="#183650"/>
</svg>
